<svg width="421" height="189" viewBox="0 0 421 189" fill="none" xmlns="http://www.w3.org/2000/svg">
<path fill-rule="evenodd" clip-rule="evenodd" d="M164.872 101C175.083 101 184.572 97.9083 192.453 92.6101C197.355 97.7733 204.33 101 212.07 101C226.904 101 238.93 89.146 238.93 74.5233C238.93 60.6272 228.07 49.2315 214.259 48.1332C212.529 22.3653 191.079 2 164.872 2C147.273 2 131.818 11.1847 123.041 25.0223C120.563 24.5197 117.998 24.2558 115.372 24.2558C94.1798 24.2558 77 41.4356 77 62.6279C77 83.8202 94.1798 101 115.372 101C124.01 101 131.98 98.1462 138.393 93.33C146.051 98.1873 155.133 101 164.872 101Z" fill="white"/>
<path fill-rule="evenodd" clip-rule="evenodd" d="M64.7946 174C72.3237 174 79.3205 171.72 85.1322 167.813C88.7465 171.621 93.8898 174 99.5968 174C110.536 174 119.403 165.259 119.403 154.477C119.403 144.23 111.395 135.827 101.211 135.017C99.9353 116.017 84.1186 101 64.7946 101C51.8172 101 40.4217 107.773 33.9497 117.976C32.1224 117.605 30.2312 117.411 28.2946 117.411C12.6679 117.411 0 130.079 0 145.705C0 161.332 12.6679 174 28.2946 174C34.6636 174 40.5411 171.896 45.2697 168.344C50.9161 171.926 57.6131 174 64.7946 174Z" fill="white"/>
<path fill-rule="evenodd" clip-rule="evenodd" d="M281.96 189C272.59 189 263.883 186.252 256.65 181.542C252.152 186.132 245.751 189 238.649 189C225.036 189 214 178.463 214 165.465C214 153.113 223.966 142.984 236.64 142.007C238.228 119.102 257.912 101 281.96 101C298.111 101 312.292 109.164 320.347 121.464C322.621 121.017 324.974 120.783 327.384 120.783C346.832 120.783 362.597 136.054 362.597 154.891C362.597 173.729 346.832 189 327.384 189C319.458 189 312.144 186.463 306.259 182.182C299.232 186.5 290.898 189 281.96 189Z" fill="white"/>
<path fill-rule="evenodd" clip-rule="evenodd" d="M374.147 50.6911C368.75 50.6911 363.734 49.108 359.568 46.3951C356.977 49.0388 353.29 50.691 349.199 50.691C341.357 50.691 335 44.6214 335 37.1341C335 30.0189 340.741 24.184 348.041 23.6216C348.956 10.4276 360.295 0 374.147 0C383.451 0 391.62 4.70285 396.259 11.7881C397.569 11.5307 398.925 11.3956 400.313 11.3956C411.516 11.3956 420.597 20.1922 420.597 31.0433C420.597 41.8945 411.516 50.691 400.313 50.691C395.748 50.691 391.534 49.2298 388.144 46.7637C384.097 49.2509 379.296 50.6911 374.147 50.6911Z" fill="white"/>
</svg>
